<mxfile host="app.diagrams.net" modified="2023-06-21T11:31:24.706Z" agent="Mozilla/5.0 (Windows NT 10.0; Win64; x64) AppleWebKit/537.36 (KHTML, like Gecko) Chrome/114.0.0.0 Safari/537.36 Edg/114.0.1823.51" version="21.4.0" etag="I1F10XGaXpXfGJlyfRzk" type="github">
  <diagram name="Page-1" id="U5W08HpKNUjpSv7VuyZv">
    <mxGraphModel>
      <root>
        <mxCell id="0" />
        <mxCell id="1" parent="0" />
      </root>
    </mxGraphModel>
  </diagram>
</mxfile>
